<?xml version="1.0" standalone="no"?>
<!DOCTYPE svg PUBLIC "-//W3C//DTD SVG 20010904//EN"
 "http://www.w3.org/TR/2001/REC-SVG-20010904/DTD/svg10.dtd">
<svg version="1.0" xmlns="http://www.w3.org/2000/svg"
 width="128.000000pt" height="128.000000pt" viewBox="0 0 128.000000 128.000000"
 preserveAspectRatio="xMidYMid meet">
<metadata>
Created by potrace 1.11, written by Peter Selinger 2001-2013
</metadata>
<g transform="translate(0.000000,128.000000) scale(0.100000,-0.100000)"
fill="#000000" stroke="none">
<path d="M244 1224 c-36 -18 -57 -51 -59 -97 -1 -27 -5 -31 -23 -29 -60 9
-127 -61 -119 -121 11 -84 55 -111 160 -102 64 6 75 4 99 -15 l28 -21 -20 -22
c-47 -49 -92 -126 -93 -158 -2 -31 4 -37 100 -106 108 -78 170 -142 256 -263
49 -69 56 -75 87 -73 22 1 58 19 109 54 l75 52 19 -24 c16 -20 18 -33 12 -95
-8 -84 7 -124 55 -149 74 -38 154 4 164 87 3 18 5 35 5 38 1 3 18 6 39 7 48 2
102 57 102 103 0 83 -60 125 -163 114 -58 -6 -65 -4 -93 20 -19 17 -25 28 -18
33 27 19 96 136 98 165 1 29 -7 37 -89 95 -118 83 -171 136 -256 255 -38 54
-76 98 -83 98 -25 0 -81 -29 -136 -70 l-55 -41 -24 27 c-21 25 -23 34 -17 95
9 83 -8 123 -59 145 -43 18 -62 17 -101 -2z"/>
</g>
</svg>
